<?xml version="1.0" encoding="utf-8"?>
<svg version="1.1" id="Layer_1" xmlns="http://www.w3.org/2000/svg" xmlns:xlink="http://www.w3.org/1999/xlink" x="0px" y="0px"
	 viewBox="0 0 5000 3313.861" enable-background="new 0 0 5000 3313.861" xml:space="preserve">
<g>
	<g>
		<path fill="#04A7CB" d="M1544.715,1097.729l67.75,262.854h2488.708l9.033-72.512h514.905c0,0,63.234-126.895-108.4-172.214
			C4345.077,1070.537,1544.715,1097.729,1544.715,1097.729z"/>
	</g>
	<g>
		<g>
			<path fill="#EB5B72" d="M4090.806,918.884h-865.031c-43.501,0-78.765-35.265-78.765-78.766V727.24h1022.559v112.88
				C4169.569,883.62,4134.306,918.884,4090.806,918.884z"/>
		</g>
		<g>
			<path fill="#9B5224" d="M4170.045,727.24H3147.01v-43.598c0-43.501,35.264-78.766,78.765-78.766h865.506
				c43.5,0,78.763,35.263,78.763,78.763V727.24z"/>
		</g>
		<g>
			<path fill="#9B5224" d="M3147.01,815.614v65.821c0,20.682,16.766,37.448,37.449,37.448h64.176v-1.644
				C3248.636,861.114,3203.136,815.614,3147.01,815.614z"/>
		</g>
		<g>
			<path fill="#9B5224" d="M4176.344,815.614v65.821c0,20.682-16.766,37.448-37.449,37.448h-64.176v-1.644
				C4074.718,861.114,4120.218,815.614,4176.344,815.614z"/>
		</g>
		<g>
			<g>
				<rect x="3360.45" y="604.876" fill="#2C2C2C" width="47.426" height="312.706"/>
			</g>
			<g>
				<path fill="none" d="M3384.164,808.815c-20.496,0-37.263-16.767-37.263-37.262v-61.434c0-20.495,16.767-37.263,37.263-37.263
					c20.494,0,37.262,16.769,37.262,37.263v61.434C3421.426,792.048,3404.658,808.815,3384.164,808.815z"/>
			</g>
		</g>
		<g>
			<g>
				<rect x="3915.989" y="604.876" fill="#2C2C2C" width="47.426" height="312.706"/>
			</g>
			<g>
				<path fill="none" d="M3939.701,808.815c-20.495,0-37.262-16.767-37.262-37.262v-61.434c0-20.495,16.767-37.263,37.262-37.263
					c20.496,0,37.263,16.769,37.263,37.263v61.434C3976.964,792.048,3960.197,808.815,3939.701,808.815z"/>
			</g>
		</g>
		<g>
			<g>
				<path fill="#2C2C2C" d="M3587.39,822.42c0,26.282-21.233,47.587-47.426,47.587c-26.192,0-47.425-21.305-47.425-47.587
					c0-26.281,21.233-47.586,47.425-47.586C3566.157,774.834,3587.39,796.139,3587.39,822.42z"/>
			</g>
			<g>
				<path fill="#2C2C2C" d="M3817.741,822.42c0,26.282-21.233,47.587-47.425,47.587s-47.426-21.305-47.426-47.587
					c0-26.281,21.234-47.586,47.426-47.586S3817.741,796.139,3817.741,822.42z"/>
			</g>
			<g>
				<path fill="#9B5224" d="M3760.083,842.814h-209.87c-13.085,0-23.792-10.706-23.792-23.792s10.707-23.793,23.792-23.793h209.868
					c13.086,0,23.793,10.707,23.793,23.793C3783.875,832.107,3773.169,842.814,3760.083,842.814z"/>
			</g>
		</g>
	</g>
	<g>
		<g>
			<g>
				<path fill="#F47A20" d="M2798.214,867.182c0,21.156-17.235,38.441-38.311,38.441h-908.888
					c-21.072,0-38.307-17.285-38.307-38.441V218.5c0-21.138,17.235-38.44,38.307-38.44h908.888c21.076,0,38.311,17.302,38.311,38.44
					V867.182z"/>
			</g>
			<g>
				<g>
					<path fill="none" d="M1812.708,218.5v96.658c3.171,0.245,6.338,0.484,9.567,0.484c68.136,0,123.375-55.417,123.375-123.775
						c0-3.986-0.228-7.927-0.599-11.807h-94.036C1829.943,180.06,1812.708,197.362,1812.708,218.5z"/>
				</g>
				<g>
					<path fill="none" d="M2759.903,180.06h-93.77c-0.367,3.88-0.585,7.821-0.585,11.807c0,68.357,55.23,123.775,123.357,123.775
						c3.15,0,6.221-0.238,9.309-0.466V218.5C2798.214,197.362,2780.979,180.06,2759.903,180.06z"/>
				</g>
				<g>
					<path fill="#FEC96D" d="M1822.275,767.707c-3.229,0-6.396,0.247-9.567,0.492v98.984c0,21.156,17.235,38.441,38.307,38.441
						h93.774c0.525-4.634,0.861-9.348,0.861-14.134C1945.65,823.134,1890.411,767.707,1822.275,767.707z"/>
				</g>
				<g>
					<path fill="#FEC96D" d="M2798.214,768.181c-3.088-0.228-6.16-0.474-9.309-0.474c-68.127,0-123.357,55.427-123.357,123.783
						c0,4.785,0.332,9.5,0.857,14.134h93.498c21.076,0,38.311-17.285,38.311-38.441V768.181z"/>
				</g>
			</g>
		</g>
		<g>
			<g>
				<g>
					<rect x="2023.724" y="180.06" fill="#803E1C" width="107.418" height="725.563"/>
				</g>
				<g>
					<g>
						<path fill="#9B5224" d="M2023.724,180.06v260.548c0,29.768,24.046,53.882,53.704,53.882c29.667,0,53.715-24.114,53.715-53.882
							V180.06H2023.724z"/>
					</g>
					<g>
						<path fill="#582C10" d="M2102.411,279.57h-49.951c-21.128,0-38.309,17.25-38.309,38.441v38.923
							c0,21.207,17.181,38.44,38.309,38.44h49.951c21.128,0,38.311-17.232,38.311-38.44v-38.923
							C2140.722,296.82,2123.539,279.57,2102.411,279.57z M2121.567,356.934c0,10.604-8.597,19.224-19.156,19.224h-13.271
							c0.091-0.588,0.354-1.133,0.354-1.747v-41.426c0-6.68-5.394-12.105-12.065-12.105c-6.657,0-12.056,5.426-12.056,12.105v41.426
							c0,0.614,0.262,1.159,0.355,1.747h-13.268c-10.559,0-19.155-8.621-19.155-19.224v-38.923c0-10.588,8.595-19.224,19.155-19.224
							h49.951c10.56,0,19.156,8.637,19.156,19.224V356.934z"/>
					</g>
				</g>
			</g>
			<g>
				<g>
					<rect x="2479.777" y="180.06" fill="#803E1C" width="107.417" height="725.563"/>
				</g>
				<g>
					<g>
						<path fill="#9B5224" d="M2479.777,180.06v260.548c0,29.768,24.049,53.882,53.708,53.882c29.667,0,53.709-24.114,53.709-53.882
							V180.06H2479.777z"/>
					</g>
					<g>
						<path fill="#582C10" d="M2558.463,279.57h-49.956c-21.129,0-38.303,17.25-38.303,38.441v38.923
							c0,21.207,17.173,38.44,38.303,38.44h49.956c21.128,0,38.31-17.232,38.31-38.44v-38.923
							C2596.773,296.82,2579.591,279.57,2558.463,279.57z M2577.623,356.934c0,10.604-8.601,19.224-19.16,19.224h-13.272
							c0.096-0.588,0.359-1.133,0.359-1.747v-41.426c0-6.68-5.399-12.105-12.065-12.105c-6.658,0-12.056,5.426-12.056,12.105v41.426
							c0,0.614,0.262,1.159,0.351,1.747h-13.272c-10.561,0-19.152-8.621-19.152-19.224v-38.923c0-10.588,8.592-19.224,19.152-19.224
							h49.956c10.559,0,19.16,8.637,19.16,19.224V356.934z"/>
					</g>
				</g>
			</g>
		</g>
		<g>
			<path fill="#582C10" d="M2305.461,2c-89.937,0-163.112,73.404-163.112,163.646v14.414h59.723v-14.414
				c0-57.191,46.383-103.717,103.389-103.717c57.004,0,103.389,46.526,103.389,103.717v14.414h59.729v-14.414
				C2468.578,75.404,2395.394,2,2305.461,2z"/>
		</g>
	</g>
	<g>
		<path fill="#04A7CB" d="M1544.715,1099.217l67.75,311.218h2488.708l9.033-85.854h514.905c0,0,63.234-150.243-108.4-203.901
			C4345.077,1067.023,1544.715,1099.217,1544.715,1099.217z"/>
	</g>
	<g>
		<path fill="#2C2C2C" d="M4499.379,2972.105H955.132c-126.61,0-230.2-103.59-230.2-230.2
			c0-126.611,103.591-230.202,230.202-230.202h3544.244c126.611,0,230.202,103.591,230.202,230.202
			C4729.58,2868.515,4625.99,2972.105,4499.379,2972.105z"/>
	</g>
	<g>
		<ellipse fill="#2C2C2C" cx="3915.989" cy="2912.782" rx="399.728" ry="401.079"/>
	</g>
	<g>
		<ellipse fill="#FCFCFC" cx="3912.593" cy="2950.171" rx="226.964" ry="227.731"/>
	</g>
	<g>
		<ellipse fill="#2C2C2C" cx="3907.264" cy="2945.71" rx="141.817" ry="142.296"/>
	</g>
	<g>
		<ellipse fill="#2C2C2C" cx="1199.187" cy="2912.782" rx="399.729" ry="401.079"/>
	</g>
	<g>
		<path fill="#2C2C2C" d="M4915.025,2933.177H4624.27c-46.736,0-84.975-38.239-84.975-84.975s38.239-84.975,84.975-84.975h290.756
			c46.736,0,84.975,38.239,84.975,84.975S4961.761,2933.177,4915.025,2933.177z"/>
	</g>
	<g>
		<path fill="#04A7CB" d="M4322.493,1349.253l54.201,373.888l40.65,197.14l88.076,706.987l74.525,156.353l331.979,6.798
			c0,0-40.65-33.989-40.65-135.959c0-101.969,13.549-543.835-74.527-815.753c-47.798-147.569-60.976-364.824-189.702-478.124
			C4478.319,1247.284,4322.493,1349.253,4322.493,1349.253z"/>
	</g>
	<g>
		<path fill="#0997BA" d="M3042.005,1362.849v577.826h1456.64c0,0,0-47.585-67.75-122.363
			c-67.752-74.778-6.776-435.069-108.402-469.059L3042.005,1362.849z"/>
	</g>
	<g>
		<polygon fill="#26C2EA" points="1680.216,1360.583 1700.542,2885.591 3042.005,2892.389 3042.005,1362.849 		"/>
	</g>
	<g>
		<polygon fill="#0997BA" points="1687.948,1940.675 1700.542,2885.591 3042.005,2892.389 3042.005,1940.675 		"/>
	</g>
	<g>
		<path fill="#04A7CB" d="M210.026,1906.686c0,0-33.875,47.586-54.2,152.953c-20.326,105.369-13.551,282.116-13.551,282.116
			l3.388,394.281l71.139,149.555l27.1,33.989l514.905,13.596c0,0,47.425-20.394,74.525-101.97
			c27.1-81.575,33.875-285.513,169.378-305.907c135.501-20.394,298.102-6.799,298.102-6.799s108.402-13.595,149.052,47.587
			c40.65,61.181,88.076,210.736,88.076,210.736s6.775,101.969,94.851,101.969c88.075,0,67.75,6.799,67.75,6.799v-985.704
			l-20.326-539.304l-67.751-4.54l-33.875,571.037L210.026,1906.686z"/>
	</g>
	<g>
		<polygon fill="#2C2C2C" points="589.431,1288.071 264.227,1831.907 481.029,1872.695 704.607,1362.849 		"/>
	</g>
	<g>
		<path fill="#26C2EA" d="M1612.466,1360.583c20.326,9.064-907.859,2.267-907.859,2.267l-223.577,509.846l-4.283,4.298
			c-43.842,43.99-9.525,62.89-70.242,50.285l-196.478-20.592c0,0,6.776-61.182,54.201-74.778
			c47.426-13.595,88.076,33.99,149.052-6.798c45.883-30.692,149.312-276.943,197.7-396.963
			c16.427-40.744,12.166-86.917-11.351-123.999l-10.196-16.078c0,0,15.839-83.58,196.477-115.565
			c230.352-40.787,758.807-74.777,758.807-74.777S1714.091,1165.708,1612.466,1360.583z"/>
	</g>
	<g>
		<path fill="#26C2EA" d="M406.504,1947.472c0,0-94.851,88.374-94.851,190.344v693.391c0,0,271.002,20.394,365.853,0
			c94.851-20.394,121.951-271.918,216.802-326.302c94.851-54.384,243.903-47.585,243.903-47.585l474.255,6.798l6.775-530.24
			l-6.775-577.835l-907.859,6.807l-223.577,509.846L406.504,1947.472z"/>
	</g>
	<g>
		<path fill="#0997BA" d="M1619.153,1940.675l-6.688-584.632l-907.859,6.807l-223.577,509.846
			c-25.001,25.087-7.295,67.979,28.064,67.979H1619.153z"/>
	</g>
	<g>
		<path fill="#2C2C2C" d="M1551.399,2151.411h-101.443c-14.955,0-27.192-12.236-27.192-27.192s12.236-27.191,27.192-27.191h101.443
			c14.955,0,27.192,12.236,27.192,27.191S1566.354,2151.411,1551.399,2151.411z"/>
	</g>
	<g>
		<path fill="#2C2C2C" d="M1445.134,1831.907h-539.32c-51.043,0-92.806-41.763-92.806-92.806v-235.86
			c0-51.043,41.763-92.806,92.806-92.806h539.317c51.045,0,92.809,41.764,92.809,92.809v235.857
			C1537.941,1790.145,1496.178,1831.907,1445.134,1831.907z"/>
	</g>
	<g>
		<path fill="#2C2C2C" d="M772.357,1430.829l-5.904,355.469c-0.484,29.097-24.116,52.438-53.118,52.465l-89.188,0.08
			c-31.951,3.103-56.117-28.463-44.787-58.599C624.22,1660.913,721.339,1420.591,772.357,1430.829z"/>
	</g>
	<g>
		<path fill="#2C2C2C" d="M2843.361,1845.504h-984.829c-57.084,0-103.789-46.705-103.789-103.789v-220.69
			c0-57.086,46.706-103.792,103.792-103.792h984.829c57.084,0,103.79,46.705,103.79,103.789v220.69
			C2947.154,1798.797,2900.447,1845.504,2843.361,1845.504z"/>
	</g>
	<g>
		<path fill="#2C2C2C" d="M4198.375,1845.504h-984.829c-57.084,0-103.789-46.705-103.789-103.79v-220.69
			c0-57.086,46.706-103.792,103.792-103.792h984.829c57.084,0,103.79,46.705,103.79,103.789v220.69
			C4302.167,1798.797,4255.46,1845.504,4198.375,1845.504z"/>
	</g>
	<g>
		<path fill="#2C2C2C" d="M155.827,2151.411c-26.085,0-47.426-21.341-47.426-47.425v-88.694c0-26.084,21.341-47.426,47.426-47.426
			c26.084,0,47.425,21.342,47.425,47.426v88.694C203.251,2130.07,181.91,2151.411,155.827,2151.411z"/>
	</g>
	<g>
		<path fill="#2C2C2C" d="M128.726,2511.703c-26.084,0-47.426-21.341-47.426-47.425v-170.27c0-26.083,21.342-47.425,47.426-47.425
			s47.425,21.341,47.425,47.425v170.27C176.151,2490.362,154.81,2511.703,128.726,2511.703z"/>
	</g>
	<g>
		<path fill="#2C2C2C" d="M176.151,2878.792h-60.976C51.828,2878.792,0,2832.321,0,2775.521
			c0-56.799,51.828-182.243,115.175-182.243l6.776,78.972c63.347,0,169.376-4.195,169.376,103.271
			C291.328,2832.321,239.498,2878.792,176.151,2878.792z"/>
	</g>
	<g>
		<path fill="#26C2EA" d="M3042.005,1940.675v951.714h238.245c67.024,0,129.616-33.611,166.795-89.567l57.131-85.986
			c37.179-55.956,99.769-89.567,166.795-89.567h490.039c67.024,0,129.616,33.611,166.795,89.567l30.03,45.198
			c59.51,28.385,228.888,21.588,228.888,21.588s0-781.764-88.076-842.946H3042.005z"/>
	</g>
	<g>
		<path fill="#26C2EA" d="M4101.174,1364.737h505.871c0,0,137.76-34.934,18.067-55.894h-514.905L4101.174,1364.737z"/>
	</g>
	<g>
		<path fill="#2C2C2C" d="M3365.821,2983.125H1627.403c-34.299,0-62.362-28.063-62.362-62.362c0-34.3,28.064-62.365,62.364-62.365
			h1738.416c34.3,0,62.364,28.064,62.364,62.364C3428.184,2955.062,3400.121,2983.125,3365.821,2983.125z"/>
	</g>
	<g>
		<ellipse fill="#FCFCFC" cx="1195.791" cy="2950.171" rx="226.965" ry="227.731"/>
	</g>
	<g>
		<ellipse fill="#2C2C2C" cx="1190.463" cy="2945.71" rx="141.818" ry="142.296"/>
	</g>
	<g>
		<path fill="#2C2C2C" d="M4610.367,1485.212h-169.262c-9.347,0-16.995-7.647-16.995-16.994c0-9.347,7.647-16.995,16.995-16.995
			h169.262c9.347,0,16.995,7.648,16.995,16.995S4619.714,1485.212,4610.367,1485.212z"/>
	</g>
	<g>
		<path fill="#2C2C2C" d="M4630.693,1553.192h-169.262c-9.347,0-16.995-7.648-16.995-16.995c0-9.347,7.647-16.995,16.995-16.995
			h169.262c9.347,0,16.995,7.648,16.995,16.995C4647.688,1545.544,4640.04,1553.192,4630.693,1553.192z"/>
	</g>
	<g>
		<path fill="#2C2C2C" d="M4644.245,1621.171h-169.265c-9.347,0-16.994-7.647-16.994-16.994c0-9.347,7.647-16.995,16.994-16.995
			h169.264c9.347,0,16.995,7.648,16.995,16.995C4661.238,1613.524,4653.591,1621.171,4644.245,1621.171z"/>
	</g>
	<g>
		<path fill="#2C2C2C" d="M4644.244,1689.151h-169.265c-9.346,0-16.993-7.647-16.993-16.993c0-9.346,7.647-16.996,16.993-16.996
			h169.265c9.347,0,16.995,7.648,16.995,16.995C4661.238,1681.503,4653.591,1689.151,4644.244,1689.151z"/>
	</g>
	<g>
		<rect x="1659.908" y="988.961" fill="#2C2C2C" width="44.038" height="353.494"/>
	</g>
	<g>
		<rect x="3008.147" y="988.961" fill="#2C2C2C" width="44.038" height="353.494"/>
	</g>
	<g>
		<rect x="4058.281" y="988.961" fill="#2C2C2C" width="44.038" height="353.494"/>
	</g>
	<g>
		<g>
			<path fill="#B99AC8" d="M3537.887,422.205L2693.053,908.34c-25.475,14.659-57.971,5.821-72.58-19.74l-73.927-129.342
				l937.088-539.22l73.927,129.342C3572.171,374.941,3563.362,407.546,3537.887,422.205z"/>
		</g>
		<g>
			<path fill="#582C10" d="M3484.072,219.786l-937.525,539.472l-33.413-58.46c-16.943-29.645-6.728-67.457,22.818-84.458
				l830.534-477.907c29.544-17.001,67.231-6.751,84.174,22.894L3484.072,219.786z"/>
		</g>
		<g>
			<path fill="#9B5224" d="M2592.835,840.244l23.411,40.962c16.944,29.644,54.63,39.894,84.175,22.894l39.636-22.807l-0.682-1.192
				C2709.878,828.491,2644.27,810.648,2592.835,840.244z"/>
		</g>
		<g>
			<path fill="#9B5224" d="M3536.132,297.451l23.412,40.962c16.943,29.645,6.728,67.458-22.816,84.459l-39.637,22.807l-0.68-1.192
				C3466.913,392.878,3484.698,327.048,3536.132,297.451z"/>
		</g>
		<g>
			<g>
				<polygon fill="#2C2C2C" points="2885.306,796.13 2841.844,821.139 2678.055,534.57 2721.516,509.561 				"/>
			</g>
			<g>
				<path fill="none" d="M2806.605,708.958c-18.781,10.807-42.961,4.231-53.732-14.613l-32.045-56.068
					c-10.771-18.845-4.217-43.105,14.565-53.913c18.781-10.807,42.961-4.231,53.732,14.613l32.045,56.068
					C2831.941,673.89,2825.386,698.151,2806.605,708.958z"/>
			</g>
		</g>
		<g>
			<g>
				<polygon fill="#2C2C2C" points="3394.409,503.181 3350.948,528.189 3187.159,241.621 3230.621,216.612 				"/>
			</g>
			<g>
				<path fill="none" d="M3315.708,416.009c-18.781,10.807-42.961,4.231-53.732-14.615l-32.045-56.067
					c-10.771-18.845-4.216-43.106,14.565-53.914c18.781-10.808,42.961-4.231,53.732,14.615l32.045,56.068
					C3341.044,380.94,3334.491,405.202,3315.708,416.009z"/>
			</g>
		</g>
		<g>
			<g>
				<path fill="#2C2C2C" d="M2999.97,614.26c13.765,24.083,5.466,54.804-18.537,68.616c-24.003,13.812-54.62,5.485-68.385-18.599
					c-13.765-24.085-5.466-54.805,18.537-68.617C2955.588,581.847,2986.205,590.175,2999.97,614.26z"/>
			</g>
			<g>
				<path fill="#2C2C2C" d="M3211.068,492.789c13.765,24.084,5.466,54.804-18.537,68.616s-54.62,5.485-68.385-18.599
					c-13.765-24.085-5.466-54.805,18.537-68.617C3166.686,460.377,3197.303,468.704,3211.068,492.789z"/>
			</g>
			<g>
				<path fill="#9B5224" d="M3168.984,541.84l-192.472,110.753c-11.951,6.878-27.338,2.693-34.193-9.3
					c-6.854-11.992-2.683-27.431,9.269-34.308l192.471-110.753c11.953-6.877,27.34-2.692,34.194,9.3
					C3185.107,519.525,3180.936,534.964,3168.984,541.84z"/>
			</g>
		</g>
	</g>
	<g>
		<path fill="#2C2C2C" d="M4499.379,2972.105H955.132c-126.61,0-230.2-103.59-230.2-230.2
			c0-126.611,103.591-230.202,230.202-230.202h3544.244c126.611,0,230.202,103.591,230.202,230.202
			C4729.58,2868.515,4625.99,2972.105,4499.379,2972.105z"/>
	</g>
	<g>
		<ellipse fill="#2C2C2C" cx="3915.989" cy="2912.782" rx="399.728" ry="401.079"/>
	</g>
	<g>
		<ellipse fill="#FCFCFC" cx="3912.593" cy="2950.171" rx="226.964" ry="227.731"/>
	</g>
	<g>
		<ellipse fill="#2C2C2C" cx="3907.264" cy="2945.71" rx="141.817" ry="142.296"/>
	</g>
	<g>
		<ellipse fill="#2C2C2C" cx="1199.187" cy="2912.782" rx="399.729" ry="401.079"/>
	</g>
	<g>
		<path fill="#2C2C2C" d="M4915.025,2933.177H4624.27c-46.736,0-84.975-38.239-84.975-84.975s38.239-84.975,84.975-84.975h290.756
			c46.736,0,84.975,38.239,84.975,84.975S4961.761,2933.177,4915.025,2933.177z"/>
	</g>
	<g>
		<path fill="#04A7CB" d="M4322.493,1349.253l54.201,373.888l40.65,197.14l88.076,706.987l74.525,156.353l331.979,6.798
			c0,0-40.65-33.989-40.65-135.959c0-101.969,13.549-543.835-74.527-815.753c-47.798-147.569-60.976-364.824-189.702-478.124
			C4478.319,1247.284,4322.493,1349.253,4322.493,1349.253z"/>
	</g>
	<g>
		<path fill="#0997BA" d="M3042.005,1362.849v577.826h1456.64c0,0,0-47.585-67.75-122.363
			c-67.752-74.778-6.776-435.069-108.402-469.059L3042.005,1362.849z"/>
	</g>
	<g>
		<polygon fill="#26C2EA" points="1680.216,1360.583 1700.542,2885.591 3042.005,2892.389 3042.005,1362.849 		"/>
	</g>
	<g>
		<polygon fill="#0997BA" points="1687.948,1940.675 1700.542,2885.591 3042.005,2892.389 3042.005,1940.675 		"/>
	</g>
	<g>
		<path fill="#04A7CB" d="M210.026,1906.686c0,0-33.875,47.586-54.2,152.953c-20.326,105.369-13.551,282.116-13.551,282.116
			l3.388,394.281l71.139,149.555l27.1,33.989l514.905,13.596c0,0,47.425-20.394,74.525-101.97
			c27.1-81.575,33.875-285.513,169.378-305.907c135.501-20.394,298.102-6.799,298.102-6.799s108.402-13.595,149.052,47.587
			c40.65,61.181,88.076,210.736,88.076,210.736s6.775,101.969,94.851,101.969c88.075,0,67.75,6.799,67.75,6.799v-985.704
			l-20.326-539.304l-67.751-4.54l-33.875,571.037L210.026,1906.686z"/>
	</g>
	<g>
		<polygon fill="#2C2C2C" points="589.431,1288.071 264.227,1831.907 481.029,1872.695 704.607,1362.849 		"/>
	</g>
	<g>
		<path fill="#26C2EA" d="M1612.466,1360.583c20.326,9.064-907.859,2.267-907.859,2.267l-223.577,509.846l-4.283,4.298
			c-43.842,43.99-9.525,62.89-70.242,50.285l-196.478-20.592c0,0,6.776-61.182,54.201-74.778
			c47.426-13.595,88.076,33.99,149.052-6.798c45.883-30.692,149.312-276.943,197.7-396.963
			c16.427-40.744,12.166-86.917-11.351-123.999l-10.196-16.078c0,0,15.839-83.58,196.477-115.565
			c230.352-40.787,758.807-74.777,758.807-74.777S1714.091,1165.708,1612.466,1360.583z"/>
	</g>
	<g>
		<path fill="#26C2EA" d="M406.504,1947.472c0,0-94.851,88.374-94.851,190.344v693.391c0,0,271.002,20.394,365.853,0
			c94.851-20.394,121.951-271.918,216.802-326.302c94.851-54.384,243.903-47.585,243.903-47.585l474.255,6.798l6.775-530.24
			l-6.775-577.835l-907.859,6.807l-223.577,509.846L406.504,1947.472z"/>
	</g>
	<g>
		<path fill="#0997BA" d="M1619.153,1940.675l-6.688-584.632l-907.859,6.807l-223.577,509.846
			c-25.001,25.087-7.295,67.979,28.064,67.979H1619.153z"/>
	</g>
	<g>
		<path fill="#2C2C2C" d="M1551.399,2151.411h-101.443c-14.955,0-27.192-12.236-27.192-27.192s12.236-27.191,27.192-27.191h101.443
			c14.955,0,27.192,12.236,27.192,27.191S1566.354,2151.411,1551.399,2151.411z"/>
	</g>
	<g>
		<path fill="#2C2C2C" d="M1445.134,1831.907h-539.32c-51.043,0-92.806-41.763-92.806-92.806v-235.86
			c0-51.043,41.763-92.806,92.806-92.806h539.317c51.045,0,92.809,41.764,92.809,92.809v235.857
			C1537.941,1790.145,1496.178,1831.907,1445.134,1831.907z"/>
	</g>
	<g>
		<path fill="#A3C5E8" d="M1537.941,1787.707c0,24.311-19.823,44.2-44.052,44.2H857.058c-24.228,0-44.05-19.889-44.05-44.2v-333.072
			c0-24.31,19.822-44.2,44.05-44.2"/>
	</g>
	<g>
		<path fill="#2C2C2C" d="M772.357,1430.829l-5.904,355.469c-0.484,29.097-24.116,52.438-53.118,52.465l-89.188,0.08
			c-31.951,3.103-56.117-28.463-44.787-58.599C624.22,1660.913,721.339,1420.591,772.357,1430.829z"/>
	</g>
	<g>
		<path fill="#2C2C2C" d="M2843.361,1845.504h-984.829c-57.084,0-103.789-46.705-103.789-103.789v-220.69
			c0-57.086,46.706-103.792,103.792-103.792h984.829c57.084,0,103.79,46.705,103.79,103.789v220.69
			C2947.154,1798.797,2900.447,1845.504,2843.361,1845.504z"/>
	</g>
	<g>
		<path fill="#A3C5E8" d="M2947.154,1796.072c0,27.188-22.169,49.432-49.264,49.432H1804.007c-27.095,0-49.264-22.244-49.264-49.432
			v-329.408c0-27.188,22.169-49.432,49.264-49.432"/>
	</g>
	<g>
		<path fill="#2C2C2C" d="M4198.375,1845.504h-984.829c-57.084,0-103.789-46.705-103.789-103.79v-220.69
			c0-57.086,46.706-103.792,103.792-103.792h984.829c57.084,0,103.79,46.705,103.79,103.789v220.69
			C4302.167,1798.797,4255.46,1845.504,4198.375,1845.504z"/>
	</g>
	<g>
		<path fill="#A3C5E8" d="M4302.167,1796.072c0,27.188-22.169,49.432-49.264,49.432H3159.021c-27.095,0-49.264-22.244-49.264-49.432
			v-329.408c0-27.188,22.169-49.432,49.264-49.432"/>
	</g>
	<g>
		<path fill="#2C2C2C" d="M155.827,2151.411c-26.085,0-47.426-21.341-47.426-47.425v-88.694c0-26.084,21.341-47.426,47.426-47.426
			c26.084,0,47.425,21.342,47.425,47.426v88.694C203.251,2130.07,181.91,2151.411,155.827,2151.411z"/>
	</g>
	<g>
		<path fill="#2C2C2C" d="M128.726,2511.703c-26.084,0-47.426-21.341-47.426-47.425v-170.27c0-26.083,21.342-47.425,47.426-47.425
			s47.425,21.341,47.425,47.425v170.27C176.151,2490.362,154.81,2511.703,128.726,2511.703z"/>
	</g>
	<g>
		<path fill="#2C2C2C" d="M176.151,2878.792h-60.976C51.828,2878.792,0,2832.321,0,2775.521
			c0-56.799,51.828-182.243,115.175-182.243l6.776,78.972c63.347,0,169.376-4.195,169.376,103.271
			C291.328,2832.321,239.498,2878.792,176.151,2878.792z"/>
	</g>
	<g>
		<path fill="#26C2EA" d="M3042.005,1940.675v951.714h238.245c67.024,0,129.616-33.611,166.795-89.567l57.131-85.986
			c37.179-55.956,99.769-89.567,166.795-89.567h490.039c67.024,0,129.616,33.611,166.795,89.567l30.03,45.198
			c59.51,28.385,228.888,21.588,228.888,21.588s0-781.764-88.076-842.946H3042.005z"/>
	</g>
	<g>
		<path fill="#26C2EA" d="M4101.174,1360.583h505.871c0,0,137.76-45.319,18.067-72.512h-514.905L4101.174,1360.583z"/>
	</g>
	<g>
		<path fill="#2C2C2C" d="M3365.821,2983.125H1627.403c-34.299,0-62.362-28.063-62.362-62.362c0-34.3,28.064-62.365,62.364-62.365
			h1738.416c34.3,0,62.364,28.064,62.364,62.364C3428.184,2955.062,3400.121,2983.125,3365.821,2983.125z"/>
	</g>
	<g>
		<ellipse fill="#FCFCFC" cx="1195.791" cy="2950.171" rx="226.965" ry="227.731"/>
	</g>
	<g>
		<ellipse fill="#2C2C2C" cx="1190.463" cy="2945.71" rx="141.818" ry="142.296"/>
	</g>
	<g>
		<path fill="#2C2C2C" d="M4610.367,1485.212h-169.262c-9.347,0-16.995-7.647-16.995-16.994c0-9.347,7.647-16.995,16.995-16.995
			h169.262c9.347,0,16.995,7.648,16.995,16.995S4619.714,1485.212,4610.367,1485.212z"/>
	</g>
	<g>
		<path fill="#2C2C2C" d="M4630.693,1553.192h-169.262c-9.347,0-16.995-7.648-16.995-16.995c0-9.347,7.647-16.995,16.995-16.995
			h169.262c9.347,0,16.995,7.648,16.995,16.995C4647.688,1545.544,4640.04,1553.192,4630.693,1553.192z"/>
	</g>
	<g>
		<path fill="#2C2C2C" d="M4644.245,1621.171h-169.265c-9.347,0-16.994-7.647-16.994-16.994c0-9.347,7.647-16.995,16.994-16.995
			h169.264c9.347,0,16.995,7.648,16.995,16.995C4661.238,1613.524,4653.591,1621.171,4644.245,1621.171z"/>
	</g>
	<g>
		<path fill="#2C2C2C" d="M4644.244,1689.151h-169.265c-9.346,0-16.993-7.647-16.993-16.993c0-9.346,7.647-16.996,16.993-16.996
			h169.265c9.347,0,16.995,7.648,16.995,16.995C4661.238,1681.503,4653.591,1689.151,4644.244,1689.151z"/>
	</g>
	<g>
		<path fill="#2C2C2C" d="M4224.083,1009.347H1494.074c-28.042,0-50.985-22.943-50.985-50.985c0-28.042,22.943-50.985,50.985-50.985
			h2730.009c28.042,0,50.985,22.943,50.985,50.985C4275.068,986.404,4252.125,1009.347,4224.083,1009.347z"/>
	</g>
	<g>
		<path fill="#2C2C2C" d="M4163.187,1369.647h-155.643c-14.955,0-27.191-12.236-27.191-27.192s12.236-27.192,27.191-27.192h155.643
			c14.955,0,27.191,12.236,27.191,27.192C4190.378,1357.411,4178.142,1369.647,4163.187,1369.647z"/>
	</g>
	<g>
		<path fill="#2C2C2C" d="M1754.65,1369.647h-155.643c-14.955,0-27.192-12.236-27.192-27.192s12.236-27.192,27.192-27.192h155.643
			c14.955,0,27.192,12.236,27.192,27.192C1781.842,1357.411,1769.606,1369.647,1754.65,1369.647z"/>
	</g>
	<g>
		<path fill="#2C2C2C" d="M3116.44,1369.647h-155.645c-14.955,0-27.191-12.236-27.191-27.192s12.236-27.192,27.191-27.192h155.645
			c14.955,0,27.192,12.236,27.192,27.192C3143.632,1357.411,3131.395,1369.647,3116.44,1369.647z"/>
	</g>
</g>
</svg>
